<svg width="51" height="49" viewBox="0 0 51 49" fill="none" xmlns="http://www.w3.org/2000/svg">
<path d="M42.9645 28.1535H50.039C48.3156 39.9129 37.889 49 25.2996 49C20.6495 49.0316 16.0825 47.7615 12.1097 45.332C8.13692 42.9025 4.91509 39.4095 2.80484 35.2438C1.19777 32.0256 0 24.5888 0 24.5888V0H40.3449C42.8699 0.164985 45.2571 1.21624 47.0896 2.97023C48.9222 4.72423 50.0838 7.06954 50.3716 9.59675C50.6595 12.124 50.0552 14.6725 48.6644 16.7975C47.2736 18.9225 45.1845 20.4889 42.762 21.2234C41.9749 21.4583 41.1642 21.6035 40.3449 21.6565H25.2651C24.2938 21.6565 23.3623 22.0444 22.6755 22.7348C21.9887 23.4253 21.6029 24.3617 21.6029 25.3381C21.6029 26.3145 21.9887 27.251 22.6755 27.9414C23.3623 28.6318 24.2938 29.0197 25.2651 29.0197H28.867V35.9498H25.3513C24.8568 35.9504 24.363 35.9157 23.8735 35.8458C21.196 35.4686 18.7604 34.0845 17.0581 31.9729C15.3558 29.8613 14.5135 27.1793 14.701 24.4679C14.8885 21.7564 16.0919 19.2174 18.0684 17.3629C20.045 15.5084 22.6476 14.4764 25.3513 14.4752L39.3669 14.5142C39.8462 14.5553 40.3289 14.4984 40.7858 14.347C41.2427 14.1955 41.6644 13.9526 42.0254 13.6329C42.3864 13.3131 42.6792 12.9232 42.8863 12.4866C43.0933 12.05 43.2102 11.5758 43.23 11.0926C43.2498 10.6093 43.1721 10.1271 43.0015 9.67486C42.8308 9.22264 42.5709 8.80983 42.2373 8.46134C41.9036 8.11285 41.5033 7.83591 41.0603 7.64717C40.6173 7.45844 40.141 7.36184 39.6598 7.36321H7.32447V24.8703C7.3983 28.6229 8.65495 32.2551 10.9135 35.2438C12.6165 37.4518 14.7994 39.239 17.2951 40.4687C19.7908 41.6984 22.5332 42.3379 25.3125 42.3385C28.3307 42.3937 31.3143 41.6863 33.9898 40.2811C40.6465 36.7164 42.5207 29.9726 42.9171 28.2921C42.9386 28.2054 42.9515 28.1535 42.9645 28.1535Z" fill="#292826"/>
</svg>
