<svg width="207" height="96" viewBox="0 0 207 96" fill="none" xmlns="http://www.w3.org/2000/svg">
<g clip-path="url(#clip0_86_1824)">
<path d="M68.9645 54.1535H76.039C74.3156 65.9129 63.889 75 51.2996 75C46.6495 75.0316 42.0825 73.7615 38.1097 71.332C34.1369 68.9025 30.9151 65.4095 28.8048 61.2438C27.1978 58.0256 26 50.5888 26 50.5888V26H66.3449C68.8699 26.165 71.2571 27.2162 73.0896 28.9702C74.9222 30.7242 76.0838 33.0695 76.3716 35.5967C76.6595 38.124 76.0552 40.6725 74.6644 42.7975C73.2736 44.9225 71.1845 46.4889 68.762 47.2234C67.9749 47.4583 67.1642 47.6035 66.3449 47.6565H51.2651C50.2938 47.6565 49.3623 48.0444 48.6755 48.7348C47.9887 49.4253 47.6029 50.3617 47.6029 51.3381C47.6029 52.3145 47.9887 53.251 48.6755 53.9414C49.3623 54.6318 50.2938 55.0197 51.2651 55.0197H54.867V61.9498H51.3513C50.8568 61.9504 50.363 61.9157 49.8735 61.8458C47.196 61.4686 44.7604 60.0845 43.0581 57.9729C41.3558 55.8613 40.5135 53.1793 40.701 50.4679C40.8885 47.7564 42.0919 45.2174 44.0684 43.3629C46.045 41.5084 48.6476 40.4764 51.3513 40.4752L65.3669 40.5142C65.8462 40.5553 66.3289 40.4984 66.7858 40.347C67.2427 40.1955 67.6644 39.9526 68.0254 39.6329C68.3864 39.3131 68.6792 38.9232 68.8863 38.4866C69.0933 38.05 69.2102 37.5758 69.23 37.0926C69.2498 36.6093 69.1721 36.1271 69.0015 35.6749C68.8308 35.2226 68.5709 34.8098 68.2373 34.4613C67.9036 34.1129 67.5033 33.8359 67.0603 33.6472C66.6173 33.4584 66.141 33.3618 65.6598 33.3632H33.3245V50.8703C33.3983 54.6229 34.655 58.2551 36.9135 61.2438C38.6165 63.4518 40.7994 65.239 43.2951 66.4687C45.7908 67.6984 48.5332 68.3379 51.3125 68.3385C54.3307 68.3937 57.3143 67.6863 59.9898 66.2811C66.6465 62.7164 68.5207 55.9726 68.9171 54.2921C68.9386 54.2054 68.9515 54.1535 68.9645 54.1535Z" fill="#292826"/>
<path d="M93.212 72.3451C93.2214 72.7007 93.1485 73.0538 92.9989 73.3762C92.8494 73.6987 92.6273 73.9818 92.3503 74.2032C91.728 74.7023 90.9484 74.9605 90.1529 74.9309H86.3184V60.6506H90.1443C90.9414 60.6188 91.7232 60.8771 92.346 61.3782C92.6225 61.6001 92.8442 61.8833 92.9937 62.2057C93.1432 62.528 93.2164 62.8808 93.2077 63.2364L93.212 72.3451ZM91.9194 72.4664V63.5309C91.9261 63.3136 91.8833 63.0977 91.7945 62.8996C91.7057 62.7015 91.573 62.5263 91.4067 62.3874C91.031 62.0865 90.5596 61.9326 90.0797 61.9543H88.0418V74.0819H89.9978C90.4962 74.1034 90.9866 73.9503 91.3852 73.6488C91.5603 73.5106 91.7001 73.3324 91.793 73.129C91.8859 72.9257 91.9293 72.7029 91.9194 72.4794V72.4664Z" fill="#292826"/>
<path d="M101.831 74.9437H95.7988V60.6504H101.4V61.9498H97.5222V67.1473H101.4V68.4467H97.5222V73.6443H101.831V74.9437Z" fill="#292826"/>
<path d="M110.447 73.9345C110.454 74.1478 110.385 74.3567 110.253 74.5236C110.131 74.6684 109.977 74.7829 109.804 74.858C109.63 74.9332 109.442 74.9669 109.253 74.9567H104.785C104.595 74.9664 104.405 74.9347 104.228 74.8637C104.051 74.7926 103.891 74.684 103.76 74.5452C103.621 74.3779 103.548 74.1654 103.553 73.9475V70.1793H105.277V73.6443H108.723V70.2702L104.04 65.5534C103.891 65.416 103.771 65.2496 103.687 65.0643C103.603 64.8789 103.558 64.6784 103.553 64.4749V61.6639C103.546 61.443 103.623 61.2276 103.769 61.0619C103.902 60.9223 104.064 60.8133 104.243 60.7423C104.422 60.6713 104.615 60.6399 104.807 60.6504H109.215C109.408 60.64 109.602 60.6735 109.781 60.7485C109.96 60.8235 110.12 60.938 110.249 61.0835C110.383 61.2529 110.453 61.4647 110.447 61.6813V64.9817H108.723V61.9498H105.277V64.9254L109.982 69.6292C110.126 69.7636 110.242 69.9262 110.322 70.1072C110.402 70.2882 110.445 70.4837 110.447 70.6817V73.9345Z" fill="#292826"/>
<path d="M114.755 74.9437H113.031V60.6504H114.755V74.9437Z" fill="#292826"/>
<path d="M124.234 73.9174C124.237 74.0533 124.21 74.1882 124.157 74.313C124.103 74.4378 124.024 74.5496 123.924 74.6407C123.659 74.8531 123.327 74.9609 122.989 74.9439H118.577C118.383 74.9543 118.19 74.9208 118.011 74.8458C117.832 74.7709 117.672 74.6564 117.543 74.5108C117.406 74.3427 117.334 74.1304 117.34 73.9131V61.6728C117.334 61.4556 117.406 61.2433 117.543 61.0751C117.672 60.9296 117.832 60.8151 118.011 60.7401C118.19 60.6651 118.383 60.6316 118.577 60.642H122.941C123.243 60.7456 123.532 60.8837 123.803 61.0535C124.023 61.2397 124.174 61.4942 124.234 61.7768V64.9819H122.51V61.95H118.633V74.0777H122.51V68.8801H120.787V68.0139H124.234V73.9174Z" fill="#292826"/>
<path d="M133.712 74.9437H132.687L128.111 64.5486V74.9437H126.818V60.6504H127.788L132.419 71.0109V60.6504H133.712V74.9437Z" fill="#292826"/>
<path d="M147.07 73.9347C147.076 74.1471 147.009 74.3552 146.88 74.5237C146.757 74.6687 146.603 74.7831 146.429 74.8582C146.254 74.9334 146.065 74.9671 145.876 74.9569H141.408C141.218 74.9666 141.028 74.9348 140.851 74.8638C140.674 74.7928 140.514 74.6842 140.383 74.5454C140.244 74.378 140.17 74.1656 140.176 73.9477V70.1794H141.899V73.6445H145.777V70.2704L141.094 65.5536C140.944 65.4162 140.824 65.2498 140.741 65.0644C140.657 64.8791 140.611 64.6786 140.607 64.4751V61.6468C140.603 61.4365 140.671 61.2313 140.801 61.0664C140.921 60.9242 141.072 60.8113 141.242 60.7363C141.413 60.6613 141.597 60.626 141.783 60.6332H145.915C146.1 60.6227 146.285 60.6564 146.454 60.7317C146.623 60.807 146.772 60.9217 146.889 61.0664C147.012 61.2306 147.076 61.4323 147.07 61.6381V64.9819H145.346V61.95H141.899V64.9256L146.604 69.6294C146.749 69.7637 146.865 69.9264 146.945 70.1074C147.025 70.2883 147.067 70.4838 147.07 70.6819V73.9347Z" fill="#292826"/>
<path d="M155.687 61.9498H153.101V74.9437H151.378V61.9498H148.793V60.6504H155.687V61.9498Z" fill="#292826"/>
<path d="M164.303 73.9215C164.31 74.1429 164.235 74.3589 164.092 74.5279C163.958 74.6719 163.795 74.7852 163.614 74.8599C163.432 74.9347 163.237 74.9692 163.041 74.961H158.233C158.037 74.9715 157.842 74.9381 157.661 74.8632C157.48 74.7882 157.317 74.6737 157.186 74.5279C157.046 74.3594 156.972 74.1452 156.979 73.9258V60.6504H158.702V73.6443H162.58V60.6504H164.303V73.9215Z" fill="#292826"/>
<path d="M173.782 72.3451C173.792 72.7007 173.719 73.0538 173.569 73.3762C173.42 73.6987 173.198 73.9818 172.921 74.2032C172.298 74.7023 171.519 74.9605 170.723 74.9309H166.889V60.6506H170.715C171.512 60.6188 172.293 60.8771 172.916 61.3782C173.193 61.6001 173.415 61.8833 173.564 62.2057C173.714 62.528 173.787 62.8808 173.778 63.2364L173.782 72.3451ZM172.059 72.4664V63.5309C172.066 63.3136 172.023 63.0977 171.934 62.8996C171.845 62.7015 171.712 62.5263 171.546 62.3874C171.17 62.0865 170.699 61.9326 170.219 61.9543H168.181V74.0819H170.137C170.636 74.1034 171.126 73.9503 171.525 73.6488C171.7 73.5106 171.84 73.3324 171.932 73.129C172.025 72.9257 172.069 72.7029 172.059 72.4794V72.4664Z" fill="#292826"/>
<path d="M178.091 74.9437H176.367V60.6504H178.091V74.9437Z" fill="#292826"/>
<path d="M188.001 73.9257C188.007 74.1436 187.933 74.356 187.794 74.5234C187.665 74.6689 187.505 74.7834 187.326 74.8584C187.147 74.9334 186.954 74.9669 186.76 74.9565H181.904C181.712 74.9656 181.52 74.9314 181.343 74.8565C181.166 74.7816 181.007 74.6678 180.879 74.5234C180.74 74.358 180.668 74.1463 180.676 73.93V61.6724C180.668 61.4561 180.74 61.2444 180.879 61.079C181.007 60.9346 181.166 60.8208 181.343 60.7459C181.52 60.671 181.712 60.6368 181.904 60.6459H186.76C186.954 60.6355 187.147 60.669 187.326 60.744C187.505 60.819 187.665 60.9335 187.794 61.079C187.933 61.2464 188.007 61.4589 188.001 61.6767V73.9257ZM186.278 74.0773V61.9496H181.969V74.0773H186.278Z" fill="#292826"/>
<path d="M99.2447 49.8222C99.3093 51.4074 96.9396 51.9878 96.9396 51.9878H86.75V26H96.875C96.875 26 99.1757 26.9659 98.8138 28.5598V35.2647C98.9804 35.6104 99.025 36.0028 98.9405 36.3775C98.8559 36.7521 98.6472 37.0867 98.3485 37.3263C98.271 37.3956 97.5988 37.8201 96.3278 38.6257C97.6405 39.4371 98.3356 39.8818 98.4131 39.9598C98.7157 40.2215 98.9497 40.5538 99.0947 40.9276C99.2397 41.3014 99.2912 41.7053 99.2447 42.1038V49.8222ZM95.367 35.9013V29.465H90.6277V37.2614H93.5402L95.367 35.9013ZM95.367 48.9559V41.5537L93.5445 40.2933H90.6277V48.9559H95.367Z" fill="#292826"/>
<path d="M124.471 51.9878H120.469L119.719 47.2234H115.044L114.295 51.9878H110.447V51.9228L115.445 26H119.495L124.471 51.9878ZM119.262 43.7583L117.375 32.0118L115.471 43.7583H119.262Z" fill="#292826"/>
<path d="M148.361 49.6099C148.361 50.2406 148.112 50.8454 147.668 51.2913C147.225 51.7373 146.623 51.9878 145.996 51.9878H137.693C136.188 51.9878 135.436 51.2096 135.436 49.6532V28.785C135.436 27.2171 136.204 26.4331 137.741 26.4331H146C147.574 26.4331 148.361 27.2156 148.361 28.7807V34.2294H144.483V29.465H139.313V48.9559H144.483V41.5927H141.467V38.1276H148.361V49.6099Z" fill="#292826"/>
<path d="M171.628 51.9878H159.564V49.9088L166.811 29.465H159.995V26H171.197V28.4125L164.114 48.5228H171.628V51.9878Z" fill="#292826"/>
<path d="M186.708 51.9878H182.83V26H186.708V51.9878Z" fill="#292826"/>
</g>
<defs>
<clipPath id="clip0_86_1824">
<rect width="162" height="49" fill="white" transform="translate(26 26)"/>
</clipPath>
</defs>
</svg>
