<svg width="162" height="49" viewBox="0 0 162 49" fill="none" xmlns="http://www.w3.org/2000/svg">
<g clip-path="url(#clip0_119_2326)">
<path d="M42.9645 28.1535H50.039C48.3156 39.9129 37.889 49 25.2996 49C20.6495 49.0316 16.0825 47.7615 12.1097 45.332C8.13692 42.9025 4.91509 39.4095 2.80484 35.2438C1.19777 32.0256 0 24.5888 0 24.5888V0H40.3449C42.8699 0.164985 45.2571 1.21624 47.0896 2.97023C48.9222 4.72423 50.0838 7.06954 50.3716 9.59675C50.6595 12.124 50.0552 14.6725 48.6644 16.7975C47.2736 18.9225 45.1845 20.4889 42.762 21.2234C41.9749 21.4583 41.1642 21.6035 40.3449 21.6565H25.2651C24.2938 21.6565 23.3623 22.0444 22.6755 22.7348C21.9887 23.4253 21.6029 24.3617 21.6029 25.3381C21.6029 26.3145 21.9887 27.251 22.6755 27.9414C23.3623 28.6318 24.2938 29.0197 25.2651 29.0197H28.867V35.9498H25.3513C24.8568 35.9504 24.363 35.9157 23.8735 35.8458C21.196 35.4686 18.7604 34.0845 17.0581 31.9729C15.3558 29.8613 14.5135 27.1793 14.701 24.4679C14.8885 21.7564 16.0919 19.2174 18.0684 17.3629C20.045 15.5084 22.6476 14.4764 25.3513 14.4752L39.3669 14.5142C39.8462 14.5553 40.3289 14.4984 40.7858 14.347C41.2427 14.1955 41.6644 13.9526 42.0254 13.6329C42.3864 13.3131 42.6792 12.9232 42.8863 12.4866C43.0933 12.05 43.2102 11.5758 43.23 11.0926C43.2498 10.6093 43.1721 10.1271 43.0015 9.67486C42.8308 9.22264 42.5709 8.80983 42.2373 8.46134C41.9036 8.11285 41.5033 7.83591 41.0603 7.64717C40.6173 7.45844 40.141 7.36184 39.6598 7.36321H7.32447V24.8703C7.3983 28.6229 8.65495 32.2551 10.9135 35.2438C12.6165 37.4518 14.7994 39.239 17.2951 40.4687C19.7908 41.6984 22.5332 42.3379 25.3125 42.3385C28.3307 42.3937 31.3143 41.6863 33.9898 40.2811C40.6465 36.7164 42.5207 29.9726 42.9171 28.2921C42.9386 28.2054 42.9515 28.1535 42.9645 28.1535Z" fill="white"/>
<path d="M67.212 46.3456C67.2214 46.7012 67.1485 47.0542 66.9989 47.3767C66.8494 47.6992 66.6273 47.9823 66.3503 48.2037C65.728 48.7028 64.9484 48.9609 64.1529 48.9314H60.3184V34.6511H64.1443C64.9414 34.6193 65.7232 34.8776 66.346 35.3787C66.6225 35.6006 66.8442 35.8838 66.9937 36.2061C67.1432 36.5285 67.2164 36.8813 67.2077 37.2368L67.212 46.3456ZM65.9194 46.4668V37.5314C65.9261 37.3141 65.8833 37.0982 65.7945 36.9001C65.7057 36.7019 65.573 36.5268 65.4067 36.3879C65.031 36.087 64.5596 35.9331 64.0797 35.9548H62.0418V48.0824H63.9978C64.4962 48.1039 64.9866 47.9508 65.3852 47.6493C65.5603 47.5111 65.7001 47.3329 65.793 47.1295C65.8859 46.9262 65.9293 46.7034 65.9194 46.4798V46.4668Z" fill="white"/>
<path d="M75.8307 48.9437H69.7988V34.6504H75.3999V35.9498H71.5222V41.1473H75.3999V42.4467H71.5222V47.6443H75.8307V48.9437Z" fill="white"/>
<path d="M84.4468 47.9345C84.454 48.1478 84.3852 48.3567 84.2529 48.5236C84.1309 48.6684 83.9771 48.7829 83.8037 48.858C83.6303 48.9332 83.4419 48.9669 83.2534 48.9567H78.7854C78.5951 48.9664 78.405 48.9347 78.228 48.8637C78.051 48.7926 77.8914 48.684 77.76 48.5452C77.6211 48.3779 77.5476 48.1654 77.5532 47.9475V44.1793H79.2766V47.6443H82.7234V44.2702L78.0401 39.5534C77.8907 39.416 77.7705 39.2496 77.6868 39.0643C77.6032 38.8789 77.5577 38.6784 77.5532 38.4749V35.6639C77.546 35.443 77.623 35.2276 77.7686 35.0619C77.9021 34.9223 78.064 34.8133 78.2432 34.7423C78.4223 34.6713 78.6147 34.6399 78.807 34.6504H83.2146C83.4082 34.64 83.6017 34.6735 83.7807 34.7485C83.9597 34.8235 84.1196 34.938 84.2486 35.0835C84.3831 35.2529 84.4533 35.4647 84.4468 35.6813V38.9817H82.7234V35.9498H79.2766V38.9254L83.9815 43.6292C84.1262 43.7636 84.2421 43.9262 84.3221 44.1072C84.4022 44.2882 84.4446 44.4837 84.4468 44.6817V47.9345Z" fill="white"/>
<path d="M88.7547 48.9437H87.0312V34.6504H88.7547V48.9437Z" fill="white"/>
<path d="M98.2339 47.9179C98.2367 48.0538 98.2105 48.1887 98.157 48.3135C98.1034 48.4383 98.0239 48.55 97.9236 48.6412C97.6592 48.8535 97.3267 48.9614 96.9887 48.9444H92.5768C92.3831 48.9548 92.1897 48.9213 92.0107 48.8463C91.8317 48.7713 91.6717 48.6568 91.5427 48.5113C91.4057 48.3431 91.3338 48.1308 91.3402 47.9136V35.6733C91.3338 35.456 91.4057 35.2438 91.5427 35.0756C91.6717 34.9301 91.8317 34.8155 92.0107 34.7406C92.1897 34.6656 92.3831 34.6321 92.5768 34.6425H96.9413C97.2432 34.7461 97.5323 34.8842 97.803 35.0539C98.0226 35.2402 98.1742 35.4947 98.2339 35.7773V38.9824H96.5105V35.9505H92.6328V48.0782H96.5105V42.8806H94.7871V42.0143H98.2339V47.9179Z" fill="white"/>
<path d="M107.712 48.9437H106.687L102.111 38.5486V48.9437H100.818V34.6504H101.788L106.419 45.0109V34.6504H107.712V48.9437Z" fill="white"/>
<path d="M121.07 47.9342C121.076 48.1466 121.009 48.3547 120.88 48.5232C120.757 48.6682 120.603 48.7826 120.429 48.8578C120.254 48.9329 120.065 48.9666 119.876 48.9564H115.408C115.218 48.9661 115.028 48.9344 114.851 48.8633C114.674 48.7923 114.514 48.6837 114.383 48.5449C114.244 48.3775 114.17 48.1651 114.176 47.9472V44.1789H115.899V47.644H119.777V44.2699L115.094 39.5531C114.944 39.4157 114.824 39.2493 114.741 39.064C114.657 38.8786 114.611 38.6781 114.607 38.4746V35.6463C114.603 35.4361 114.671 35.2308 114.801 35.0659C114.921 34.9237 115.072 34.8108 115.242 34.7358C115.413 34.6608 115.597 34.6255 115.783 34.6328H119.915C120.1 34.6222 120.285 34.6559 120.454 34.7312C120.623 34.8066 120.772 34.9213 120.889 35.0659C121.012 35.2301 121.076 35.4319 121.07 35.6376V38.9814H119.346V35.9495H115.899V38.9251L120.604 43.6289C120.749 43.7633 120.865 43.9259 120.945 44.1069C121.025 44.2879 121.067 44.4833 121.07 44.6814V47.9342Z" fill="white"/>
<path d="M129.687 35.9498H127.101V48.9437H125.378V35.9498H122.793V34.6504H129.687V35.9498Z" fill="white"/>
<path d="M138.303 47.9215C138.31 48.1429 138.235 48.3589 138.092 48.5279C137.958 48.6719 137.795 48.7852 137.614 48.8599C137.432 48.9347 137.237 48.9692 137.041 48.961H132.233C132.037 48.9715 131.842 48.9381 131.661 48.8632C131.48 48.7882 131.317 48.6737 131.186 48.5279C131.046 48.3594 130.972 48.1452 130.979 47.9258V34.6504H132.702V47.6443H136.58V34.6504H138.303V47.9215Z" fill="white"/>
<path d="M147.782 46.3456C147.792 46.7012 147.719 47.0542 147.569 47.3767C147.42 47.6992 147.198 47.9823 146.921 48.2037C146.298 48.7028 145.519 48.9609 144.723 48.9314H140.889V34.6511H144.715C145.512 34.6193 146.293 34.8776 146.916 35.3787C147.193 35.6006 147.415 35.8838 147.564 36.2061C147.714 36.5285 147.787 36.8813 147.778 37.2368L147.782 46.3456ZM146.059 46.4668V37.5314C146.066 37.3141 146.023 37.0982 145.934 36.9001C145.845 36.7019 145.712 36.5268 145.546 36.3879C145.17 36.087 144.699 35.9331 144.219 35.9548H142.181V48.0824H144.137C144.636 48.1039 145.126 47.9508 145.525 47.6493C145.7 47.5111 145.84 47.3329 145.932 47.1295C146.025 46.9262 146.069 46.7034 146.059 46.4798V46.4668Z" fill="white"/>
<path d="M152.091 48.9437H150.367V34.6504H152.091V48.9437Z" fill="white"/>
<path d="M162.001 47.9262C162.007 48.144 161.933 48.3565 161.794 48.5239C161.665 48.6694 161.505 48.7839 161.326 48.8589C161.147 48.9339 160.954 48.9674 160.76 48.957H155.904C155.712 48.9661 155.52 48.9319 155.343 48.857C155.166 48.7821 155.007 48.6682 154.879 48.5239C154.74 48.3585 154.668 48.1468 154.676 47.9305V35.6729C154.668 35.4566 154.74 35.2449 154.879 35.0795C155.007 34.9351 155.166 34.8213 155.343 34.7464C155.52 34.6715 155.712 34.6373 155.904 34.6464H160.76C160.954 34.636 161.147 34.6695 161.326 34.7445C161.505 34.8195 161.665 34.934 161.794 35.0795C161.933 35.2469 162.007 35.4593 162.001 35.6772V47.9262ZM160.278 48.0778V35.9501H155.969V48.0778H160.278Z" fill="white"/>
<path d="M73.2447 23.8222C73.3093 25.4074 70.9396 25.9878 70.9396 25.9878H60.75V0H70.875C70.875 0 73.1757 0.965882 72.8138 2.5598V9.26466C72.9804 9.61042 73.025 10.0028 72.9405 10.3775C72.8559 10.7521 72.6472 11.0867 72.3485 11.3263C72.271 11.3956 71.5988 11.8201 70.3278 12.6257C71.6405 13.4371 72.3356 13.8818 72.4131 13.9598C72.7157 14.2215 72.9497 14.5538 73.0947 14.9276C73.2397 15.3014 73.2912 15.7053 73.2447 16.1038V23.8222ZM69.367 9.90135V3.46504H64.6277V11.2614H67.5402L69.367 9.90135ZM69.367 22.9559V15.5537L67.5445 14.2933H64.6277V22.9559H69.367Z" fill="white"/>
<path d="M98.4715 25.9878H94.4689L93.7192 21.2234H89.0445L88.2948 25.9878H84.4473V25.9228L89.4451 0H93.4951L98.4715 25.9878ZM93.2625 17.7583L91.3753 6.01185L89.471 17.7583H93.2625Z" fill="white"/>
<path d="M122.361 23.6104C122.361 24.241 122.112 24.8459 121.668 25.2918C121.225 25.7377 120.623 25.9883 119.996 25.9883H111.693C110.188 25.9883 109.436 25.2101 109.436 23.6537V2.78549C109.436 1.21756 110.204 0.433594 111.741 0.433594H120C121.574 0.433594 122.361 1.21612 122.361 2.78116V8.22993H118.483V3.4655H113.313V22.9564H118.483V15.5931H115.467V12.1281H122.361V23.6104Z" fill="white"/>
<path d="M145.628 25.9878H133.564V23.9088L140.811 3.46504H133.995V0H145.197V2.41254L138.114 22.5228H145.628V25.9878Z" fill="white"/>
<path d="M160.708 25.9878H156.83V0H160.708V25.9878Z" fill="white"/>
</g>
<defs>
<clipPath id="clip0_119_2326">
<rect width="162" height="49" fill="white"/>
</clipPath>
</defs>
</svg>
