<svg width="20" height="20" viewBox="0 0 20 20" fill="none" xmlns="http://www.w3.org/2000/svg">
<path d="M1.66602 5.00065C1.66602 4.55862 1.84161 4.1347 2.15417 3.82214C2.46673 3.50958 2.89065 3.33398 3.33268 3.33398H16.666C17.108 3.33398 17.532 3.50958 17.8445 3.82214C18.1571 4.1347 18.3327 4.55862 18.3327 5.00065V15.0006C18.3327 15.4427 18.1571 15.8666 17.8445 16.1792C17.532 16.4917 17.108 16.6673 16.666 16.6673H3.33268C2.89065 16.6673 2.46673 16.4917 2.15417 16.1792C1.84161 15.8666 1.66602 15.4427 1.66602 15.0006V5.00065Z" stroke="white" stroke-width="2" stroke-linecap="round" stroke-linejoin="round"/>
<path d="M1.66602 6.66602L7.91685 11.6668C8.50792 12.1398 9.24236 12.3974 9.99935 12.3974C10.7563 12.3974 11.4908 12.1398 12.0818 11.6668L18.3327 6.66602" stroke="white" stroke-width="2" stroke-linecap="round" stroke-linejoin="round"/>
</svg>
