<svg width="18" height="18" viewBox="0 0 18 18" fill="none" xmlns="http://www.w3.org/2000/svg">
<path d="M7.26306 8.02956C7.26306 8.02956 8.96616 7.90476 8.96616 5.93349C8.96616 3.96208 7.57281 3 5.80784 3H0V14.0165H5.80784C5.80784 14.0165 9.35331 14.127 9.35331 10.7649C9.35331 10.765 9.50789 8.02956 7.26306 8.02956V8.02956ZM5.38979 4.95806H5.80784C5.80784 4.95806 6.59729 4.95806 6.59729 6.10428C6.59729 7.25036 6.13301 7.41652 5.60639 7.41652H2.55901V4.95806H5.38979V4.95806ZM5.64372 12.0585H2.55901V9.11449H5.80784C5.80784 9.11449 6.98448 9.09926 6.98448 10.6274C6.98448 11.916 6.10564 12.0488 5.64372 12.0585V12.0585ZM14.0818 5.80292C9.78963 5.80292 9.79344 10.0358 9.79344 10.0358C9.79344 10.0358 9.49894 14.2469 14.0818 14.2469C14.0818 14.2469 17.9008 14.4623 17.9008 11.3175H15.9368C15.9368 11.3175 16.0023 12.5018 14.1473 12.5018C14.1473 12.5018 12.1829 12.6317 12.1829 10.5851H17.9663C17.9663 10.5851 18.5991 5.80292 14.0818 5.80292ZM12.1613 9.11449C12.1613 9.11449 12.4012 7.41649 14.1254 7.41649C15.8494 7.41649 15.8278 9.11449 15.8278 9.11449H12.1613ZM16.2853 5.00561H11.6805V3.64901H16.2853V5.00561Z" fill="white"/>
</svg>
