<svg width="1440" height="574" viewBox="0 0 1440 574" fill="none" xmlns="http://www.w3.org/2000/svg">
<g filter="url(#filter0_d_56_7389)">
<path d="M83.656 214.936C83.656 199 86.92 184.888 93.448 172.6C100.168 160.312 109.192 150.808 120.52 144.088C132.04 137.176 144.808 133.72 158.824 133.72C169.192 133.72 179.368 136.024 189.352 140.632C199.528 145.048 207.592 151 213.544 158.488V81.88H246.664V295H213.544V271.096C208.168 278.776 200.68 285.112 191.08 290.104C181.672 295.096 170.824 297.592 158.536 297.592C144.712 297.592 132.04 294.136 120.52 287.224C109.192 280.12 100.168 270.328 93.448 257.848C86.92 245.176 83.656 230.872 83.656 214.936ZM213.544 215.512C213.544 204.568 211.24 195.064 206.632 187C202.216 178.936 196.36 172.792 189.064 168.568C181.768 164.344 173.896 162.232 165.448 162.232C157 162.232 149.128 164.344 141.832 168.568C134.536 172.6 128.584 178.648 123.976 186.712C119.56 194.584 117.352 203.992 117.352 214.936C117.352 225.88 119.56 235.48 123.976 243.736C128.584 251.992 134.536 258.328 141.832 262.744C149.32 266.968 157.192 269.08 165.448 269.08C173.896 269.08 181.768 266.968 189.064 262.744C196.36 258.52 202.216 252.376 206.632 244.312C211.24 236.056 213.544 226.456 213.544 215.512ZM438.108 211.768C438.108 217.72 437.724 223.096 436.956 227.896H315.708C316.668 240.568 321.372 250.744 329.82 258.424C338.268 266.104 348.636 269.944 360.924 269.944C378.588 269.944 391.068 262.552 398.364 247.768H433.788C428.988 262.36 420.252 274.36 407.58 283.768C395.1 292.984 379.548 297.592 360.924 297.592C345.756 297.592 332.124 294.232 320.028 287.512C308.124 280.6 298.716 271 291.804 258.712C285.084 246.232 281.724 231.832 281.724 215.512C281.724 199.192 284.988 184.888 291.516 172.6C298.236 160.12 307.548 150.52 319.452 143.8C331.548 137.08 345.372 133.72 360.924 133.72C375.9 133.72 389.244 136.984 400.956 143.512C412.668 150.04 421.788 159.256 428.316 171.16C434.844 182.872 438.108 196.408 438.108 211.768ZM403.836 201.4C403.644 189.304 399.324 179.608 390.876 172.312C382.428 165.016 371.964 161.368 359.484 161.368C348.156 161.368 338.46 165.016 330.396 172.312C322.332 179.416 317.532 189.112 315.996 201.4H403.836ZM530.898 297.592C518.418 297.592 507.186 295.384 497.202 290.968C487.41 286.36 479.634 280.216 473.874 272.536C468.114 264.664 465.042 255.928 464.658 246.328H498.642C499.218 253.048 502.386 258.712 508.146 263.32C514.098 267.736 521.49 269.944 530.322 269.944C539.538 269.944 546.642 268.216 551.634 264.76C556.818 261.112 559.41 256.504 559.41 250.936C559.41 244.984 556.53 240.568 550.77 237.688C545.202 234.808 536.274 231.64 523.986 228.184C512.082 224.92 502.386 221.752 494.898 218.68C487.41 215.608 480.882 210.904 475.314 204.568C469.938 198.232 467.25 189.88 467.25 179.512C467.25 171.064 469.746 163.384 474.738 156.472C479.73 149.368 486.834 143.8 496.05 139.768C505.458 135.736 516.21 133.72 528.306 133.72C546.354 133.72 560.85 138.328 571.794 147.544C582.93 156.568 588.882 168.952 589.65 184.696H556.818C556.242 177.592 553.362 171.928 548.178 167.704C542.994 163.48 535.986 161.368 527.154 161.368C518.514 161.368 511.89 163 507.282 166.264C502.674 169.528 500.37 173.848 500.37 179.224C500.37 183.448 501.906 187 504.978 189.88C508.05 192.76 511.794 195.064 516.21 196.792C520.626 198.328 527.154 200.344 535.794 202.84C547.314 205.912 556.722 209.08 564.018 212.344C571.506 215.416 577.938 220.024 583.314 226.168C588.69 232.312 591.474 240.472 591.666 250.648C591.666 259.672 589.17 267.736 584.178 274.84C579.186 281.944 572.082 287.512 562.866 291.544C553.842 295.576 543.186 297.592 530.898 297.592ZM646.725 115.288C640.773 115.288 635.781 113.272 631.749 109.24C627.717 105.208 625.701 100.216 625.701 94.264C625.701 88.312 627.717 83.32 631.749 79.288C635.781 75.256 640.773 73.24 646.725 73.24C652.485 73.24 657.381 75.256 661.413 79.288C665.445 83.32 667.461 88.312 667.461 94.264C667.461 100.216 665.445 105.208 661.413 109.24C657.381 113.272 652.485 115.288 646.725 115.288ZM662.853 136.312V295H630.021V136.312H662.853ZM772.775 133.72C785.063 133.72 795.911 136.216 805.319 141.208C814.919 146.008 822.407 152.056 827.783 159.352V136.312H860.903V297.592C860.903 312.184 857.831 325.144 851.687 336.472C845.543 347.992 836.615 357.016 824.903 363.544C813.383 370.072 799.559 373.336 783.431 373.336C761.927 373.336 744.071 368.248 729.863 358.072C715.655 348.088 707.591 334.456 705.671 317.176H738.215C740.711 325.432 745.991 332.056 754.055 337.048C762.311 342.232 772.103 344.824 783.431 344.824C796.679 344.824 807.335 340.792 815.399 332.728C823.655 324.664 827.783 312.952 827.783 297.592V271.096C822.215 278.584 814.631 284.92 805.031 290.104C795.623 295.096 784.871 297.592 772.775 297.592C758.951 297.592 746.279 294.136 734.759 287.224C723.431 280.12 714.407 270.328 707.687 257.848C701.159 245.176 697.895 230.872 697.895 214.936C697.895 199 701.159 184.888 707.687 172.6C714.407 160.312 723.431 150.808 734.759 144.088C746.279 137.176 758.951 133.72 772.775 133.72ZM827.783 215.512C827.783 204.568 825.479 195.064 820.871 187C816.455 178.936 810.599 172.792 803.303 168.568C796.007 164.344 788.135 162.232 779.687 162.232C771.239 162.232 763.367 164.344 756.071 168.568C748.775 172.6 742.823 178.648 738.215 186.712C733.799 194.584 731.591 203.992 731.591 214.936C731.591 225.88 733.799 235.48 738.215 243.736C742.823 251.992 748.775 258.328 756.071 262.744C763.559 266.968 771.431 269.08 779.687 269.08C788.135 269.08 796.007 266.968 803.303 262.744C810.599 258.52 816.455 252.376 820.871 244.312C825.479 236.056 827.783 226.456 827.783 215.512ZM986.97 133.72C999.45 133.72 1010.59 136.312 1020.38 141.496C1030.36 146.68 1038.14 154.36 1043.71 164.536C1049.27 174.712 1052.06 187 1052.06 201.4V295H1019.51V206.296C1019.51 192.088 1015.96 181.24 1008.86 173.752C1001.75 166.072 992.058 162.232 979.77 162.232C967.482 162.232 957.69 166.072 950.394 173.752C943.29 181.24 939.738 192.088 939.738 206.296V295H906.906V136.312H939.738V154.456C945.114 147.928 951.93 142.84 960.186 139.192C968.634 135.544 977.562 133.72 986.97 133.72ZM1242.26 211.768C1242.26 217.72 1241.87 223.096 1241.11 227.896H1119.86C1120.82 240.568 1125.52 250.744 1133.97 258.424C1142.42 266.104 1152.79 269.944 1165.07 269.944C1182.74 269.944 1195.22 262.552 1202.51 247.768H1237.94C1233.14 262.36 1224.4 274.36 1211.73 283.768C1199.25 292.984 1183.7 297.592 1165.07 297.592C1149.91 297.592 1136.27 294.232 1124.18 287.512C1112.27 280.6 1102.87 271 1095.95 258.712C1089.23 246.232 1085.87 231.832 1085.87 215.512C1085.87 199.192 1089.14 184.888 1095.67 172.6C1102.39 160.12 1111.7 150.52 1123.6 143.8C1135.7 137.08 1149.52 133.72 1165.07 133.72C1180.05 133.72 1193.39 136.984 1205.11 143.512C1216.82 150.04 1225.94 159.256 1232.47 171.16C1238.99 182.872 1242.26 196.408 1242.26 211.768ZM1207.99 201.4C1207.79 189.304 1203.47 179.608 1195.03 172.312C1186.58 165.016 1176.11 161.368 1163.63 161.368C1152.31 161.368 1142.61 165.016 1134.55 172.312C1126.48 179.416 1121.68 189.112 1120.15 201.4H1207.99ZM1310.28 159.352C1315.08 151.288 1321.42 145.048 1329.29 140.632C1337.35 136.024 1346.86 133.72 1357.8 133.72V167.704H1349.45C1336.58 167.704 1326.79 170.968 1320.07 177.496C1313.54 184.024 1310.28 195.352 1310.28 211.48V295H1277.45V136.312H1310.28V159.352Z" fill="white"/>
</g>
<defs>
<filter id="filter0_d_56_7389" x="-112.556" y="-118.729" width="1666.57" height="692.52" filterUnits="userSpaceOnUse" color-interpolation-filters="sRGB">
<feFlood flood-opacity="0" result="BackgroundImageFix"/>
<feColorMatrix in="SourceAlpha" type="matrix" values="0 0 0 0 0 0 0 0 0 0 0 0 0 0 0 0 0 0 127 0" result="hardAlpha"/>
<feOffset dy="4.24242"/>
<feGaussianBlur stdDeviation="98.1061"/>
<feComposite in2="hardAlpha" operator="out"/>
<feColorMatrix type="matrix" values="0 0 0 0 0.2 0 0 0 0 0.2 0 0 0 0 0.2 0 0 0 0.06 0"/>
<feBlend mode="normal" in2="BackgroundImageFix" result="effect1_dropShadow_56_7389"/>
<feBlend mode="normal" in="SourceGraphic" in2="effect1_dropShadow_56_7389" result="shape"/>
</filter>
</defs>
</svg>
