<svg width="18" height="19" viewBox="0 0 18 19" fill="none" xmlns="http://www.w3.org/2000/svg">
<path d="M1.49609 5.04492C1.49609 4.6471 1.65413 4.26557 1.93543 3.98426C2.21674 3.70296 2.59827 3.54492 2.99609 3.54492H14.9961C15.3939 3.54492 15.7754 3.70296 16.0568 3.98426C16.3381 4.26557 16.4961 4.6471 16.4961 5.04492V14.0449C16.4961 14.4427 16.3381 14.8243 16.0568 15.1056C15.7754 15.3869 15.3939 15.5449 14.9961 15.5449H2.99609C2.59827 15.5449 2.21674 15.3869 1.93543 15.1056C1.65413 14.8243 1.49609 14.4427 1.49609 14.0449V5.04492Z" stroke="white" stroke-width="0.686275" stroke-linecap="round" stroke-linejoin="round"/>
<path d="M1.49609 6.54688L7.12184 11.0476C7.65381 11.4733 8.31481 11.7052 8.99609 11.7052C9.67738 11.7052 10.3384 11.4733 10.8703 11.0476L16.4961 6.54688" stroke="white" stroke-width="0.686275" stroke-linecap="round" stroke-linejoin="round"/>
</svg>
