<svg width="1440" height="471" viewBox="0 0 1440 471" fill="none" xmlns="http://www.w3.org/2000/svg">
<rect width="1440" height="471" fill="#fff"/>
<rect x="620" y="313" width="204" height="70" rx="8" fill="#transparent"/>
<path d="M681.592 348.416C681.592 347.328 681.843 346.352 682.344 345.488C682.856 344.624 683.544 343.952 684.408 343.472C685.283 342.981 686.237 342.736 687.272 342.736C688.456 342.736 689.507 343.029 690.424 343.616C691.352 344.192 692.024 345.013 692.44 346.08H690.248C689.96 345.493 689.56 345.056 689.048 344.768C688.536 344.48 687.944 344.336 687.272 344.336C686.536 344.336 685.88 344.501 685.304 344.832C684.728 345.163 684.275 345.637 683.944 346.256C683.624 346.875 683.464 347.595 683.464 348.416C683.464 349.237 683.624 349.957 683.944 350.576C684.275 351.195 684.728 351.675 685.304 352.016C685.88 352.347 686.536 352.512 687.272 352.512C687.944 352.512 688.536 352.368 689.048 352.08C689.56 351.792 689.96 351.355 690.248 350.768H692.44C692.024 351.835 691.352 352.656 690.424 353.232C689.507 353.808 688.456 354.096 687.272 354.096C686.227 354.096 685.272 353.856 684.408 353.376C683.544 352.885 682.856 352.208 682.344 351.344C681.843 350.48 681.592 349.504 681.592 348.416ZM700.147 354.112C699.112 354.112 698.158 353.872 697.283 353.392C696.419 352.901 695.731 352.224 695.219 351.36C694.718 350.485 694.467 349.504 694.467 348.416C694.467 347.328 694.718 346.352 695.219 345.488C695.731 344.624 696.419 343.952 697.283 343.472C698.158 342.981 699.112 342.736 700.147 342.736C701.192 342.736 702.147 342.981 703.011 343.472C703.886 343.952 704.574 344.624 705.075 345.488C705.576 346.352 705.827 347.328 705.827 348.416C705.827 349.504 705.576 350.485 705.075 351.36C704.574 352.224 703.886 352.901 703.011 353.392C702.147 353.872 701.192 354.112 700.147 354.112ZM700.147 352.528C700.883 352.528 701.539 352.363 702.115 352.032C702.691 351.691 703.139 351.211 703.459 350.592C703.79 349.963 703.955 349.237 703.955 348.416C703.955 347.595 703.79 346.875 703.459 346.256C703.139 345.637 702.691 345.163 702.115 344.832C701.539 344.501 700.883 344.336 700.147 344.336C699.411 344.336 698.755 344.501 698.179 344.832C697.603 345.163 697.15 345.637 696.819 346.256C696.499 346.875 696.339 347.595 696.339 348.416C696.339 349.237 696.499 349.963 696.819 350.592C697.15 351.211 697.603 351.691 698.179 352.032C698.755 352.363 699.411 352.528 700.147 352.528ZM717.258 354H715.434L709.946 345.696V354H708.122V342.864H709.946L715.434 351.152V342.864H717.258V354ZM727.337 342.88V344.368H724.377V354H722.553V344.368H719.577V342.88H727.337ZM736.388 351.728H731.732L730.932 354H729.028L733.012 342.864H735.124L739.108 354H737.188L736.388 351.728ZM735.876 350.24L734.068 345.072L732.244 350.24H735.876ZM740.733 348.416C740.733 347.328 740.983 346.352 741.485 345.488C741.997 344.624 742.685 343.952 743.549 343.472C744.423 342.981 745.378 342.736 746.413 342.736C747.597 342.736 748.647 343.029 749.565 343.616C750.493 344.192 751.165 345.013 751.581 346.08H749.389C749.101 345.493 748.701 345.056 748.189 344.768C747.677 344.48 747.085 344.336 746.413 344.336C745.677 344.336 745.021 344.501 744.445 344.832C743.869 345.163 743.415 345.637 743.085 346.256C742.765 346.875 742.605 347.595 742.605 348.416C742.605 349.237 742.765 349.957 743.085 350.576C743.415 351.195 743.869 351.675 744.445 352.016C745.021 352.347 745.677 352.512 746.413 352.512C747.085 352.512 747.677 352.368 748.189 352.08C748.701 351.792 749.101 351.355 749.389 350.768H751.581C751.165 351.835 750.493 352.656 749.565 353.232C748.647 353.808 747.597 354.096 746.413 354.096C745.367 354.096 744.413 353.856 743.549 353.376C742.685 352.885 741.997 352.208 741.485 351.344C740.983 350.48 740.733 349.504 740.733 348.416ZM761.4 342.88V344.368H758.44V354H756.616V344.368H753.64V342.88H761.4ZM780.115 342.88V354H778.291V346.384L774.899 354H773.635L770.227 346.384V354H768.403V342.88H770.371L774.275 351.6L778.163 342.88H780.115ZM784.837 344.352V347.616H788.677V349.104H784.837V352.512H789.157V354H783.013V342.864H789.157V344.352H784.837Z" fill="white"/>
<path d="M654.666 343.001C654.666 342.559 654.842 342.135 655.154 341.822C655.467 341.51 655.891 341.334 656.333 341.334H669.666C670.108 341.334 670.532 341.51 670.845 341.822C671.157 342.135 671.333 342.559 671.333 343.001V353.001C671.333 353.443 671.157 353.867 670.845 354.179C670.532 354.492 670.108 354.667 669.666 354.667H656.333C655.891 354.667 655.467 354.492 655.154 354.179C654.842 353.867 654.666 353.443 654.666 353.001V343.001Z" stroke="white" stroke-width="2" stroke-linecap="round" stroke-linejoin="round"/>
<path d="M654.666 344.666L660.917 349.667C661.508 350.14 662.242 350.397 662.999 350.397C663.756 350.397 664.491 350.14 665.082 349.667L671.333 344.666" stroke="white" stroke-width="2" stroke-linecap="round" stroke-linejoin="round"/>
<mask id="mask0_56_7562" style="mask-type:alpha" maskUnits="userSpaceOnUse" x="1122" y="206" width="318" height="265">
<path d="M1122 206H1440V471H1122V206Z" fill="#F1F0FB"/>
</mask>
<g mask="url(#mask0_56_7562)">
<ellipse cx="1308.28" cy="382.246" rx="155.283" ry="166.246" fill="#292826" stroke="#EEC01C" stroke-width="6"/>
</g>
<circle cx="251.5" cy="349.5" r="36.5" fill="#292826"/>
<circle cx="1101.5" cy="74.5" r="20.5" fill="#292826"/>
<circle cx="665.5" cy="71.5" r="12.5" fill="#292826"/>
<circle cx="339.5" cy="83.5" r="19.5" fill="#292826"/>
<path d="M485.845 131.1V166H478.845V131.1H485.845ZM508.361 137.9C511.661 137.9 514.327 138.95 516.361 141.05C518.394 143.117 519.411 146.017 519.411 149.75V166H512.411V150.7C512.411 148.5 511.861 146.817 510.761 145.65C509.661 144.45 508.161 143.85 506.261 143.85C504.327 143.85 502.794 144.45 501.661 145.65C500.561 146.817 500.011 148.5 500.011 150.7V166H493.011V138.3H500.011V141.75C500.944 140.55 502.127 139.617 503.561 138.95C505.027 138.25 506.627 137.9 508.361 137.9ZM534.467 144.05V157.45C534.467 158.383 534.684 159.067 535.117 159.5C535.584 159.9 536.351 160.1 537.417 160.1H540.667V166H536.267C530.367 166 527.417 163.133 527.417 157.4V144.05H524.117V138.3H527.417V131.45H534.467V138.3H540.667V144.05H534.467ZM571.702 151.55C571.702 152.55 571.635 153.45 571.502 154.25H551.252C551.419 156.25 552.119 157.817 553.352 158.95C554.585 160.083 556.102 160.65 557.902 160.65C560.502 160.65 562.352 159.533 563.452 157.3H571.002C570.202 159.967 568.669 162.167 566.402 163.9C564.135 165.6 561.352 166.45 558.052 166.45C555.385 166.45 552.985 165.867 550.852 164.7C548.752 163.5 547.102 161.817 545.902 159.65C544.735 157.483 544.152 154.983 544.152 152.15C544.152 149.283 544.735 146.767 545.902 144.6C547.069 142.433 548.702 140.767 550.802 139.6C552.902 138.433 555.319 137.85 558.052 137.85C560.685 137.85 563.035 138.417 565.102 139.55C567.202 140.683 568.819 142.3 569.952 144.4C571.119 146.467 571.702 148.85 571.702 151.55ZM564.452 149.55C564.419 147.75 563.769 146.317 562.502 145.25C561.235 144.15 559.685 143.6 557.852 143.6C556.119 143.6 554.652 144.133 553.452 145.2C552.285 146.233 551.569 147.683 551.302 149.55H564.452ZM584.061 142.6C584.961 141.133 586.128 139.983 587.561 139.15C589.028 138.317 590.695 137.9 592.561 137.9V145.25H590.711C588.511 145.25 586.845 145.767 585.711 146.8C584.611 147.833 584.061 149.633 584.061 152.2V166H577.061V138.3H584.061V142.6ZM623.276 151.55C623.276 152.55 623.21 153.45 623.076 154.25H602.826C602.993 156.25 603.693 157.817 604.926 158.95C606.16 160.083 607.676 160.65 609.476 160.65C612.076 160.65 613.926 159.533 615.026 157.3H622.576C621.776 159.967 620.243 162.167 617.976 163.9C615.71 165.6 612.926 166.45 609.626 166.45C606.96 166.45 604.56 165.867 602.426 164.7C600.326 163.5 598.676 161.817 597.476 159.65C596.31 157.483 595.726 154.983 595.726 152.15C595.726 149.283 596.31 146.767 597.476 144.6C598.643 142.433 600.276 140.767 602.376 139.6C604.476 138.433 606.893 137.85 609.626 137.85C612.26 137.85 614.61 138.417 616.676 139.55C618.776 140.683 620.393 142.3 621.526 144.4C622.693 146.467 623.276 148.85 623.276 151.55ZM616.026 149.55C615.993 147.75 615.343 146.317 614.076 145.25C612.81 144.15 611.26 143.6 609.426 143.6C607.693 143.6 606.226 144.133 605.026 145.2C603.86 146.233 603.143 147.683 602.876 149.55H616.026ZM639.236 166.45C636.969 166.45 634.936 166.05 633.136 165.25C631.336 164.417 629.902 163.3 628.836 161.9C627.802 160.5 627.236 158.95 627.136 157.25H634.186C634.319 158.317 634.836 159.2 635.736 159.9C636.669 160.6 637.819 160.95 639.186 160.95C640.519 160.95 641.552 160.683 642.286 160.15C643.052 159.617 643.436 158.933 643.436 158.1C643.436 157.2 642.969 156.533 642.036 156.1C641.136 155.633 639.686 155.133 637.686 154.6C635.619 154.1 633.919 153.583 632.586 153.05C631.286 152.517 630.152 151.7 629.186 150.6C628.252 149.5 627.786 148.017 627.786 146.15C627.786 144.617 628.219 143.217 629.086 141.95C629.986 140.683 631.252 139.683 632.886 138.95C634.552 138.217 636.502 137.85 638.736 137.85C642.036 137.85 644.669 138.683 646.636 140.35C648.602 141.983 649.686 144.2 649.886 147H643.186C643.086 145.9 642.619 145.033 641.786 144.4C640.986 143.733 639.902 143.4 638.536 143.4C637.269 143.4 636.286 143.633 635.586 144.1C634.919 144.567 634.586 145.217 634.586 146.05C634.586 146.983 635.052 147.7 635.986 148.2C636.919 148.667 638.369 149.15 640.336 149.65C642.336 150.15 643.986 150.667 645.286 151.2C646.586 151.733 647.702 152.567 648.636 153.7C649.602 154.8 650.102 156.267 650.136 158.1C650.136 159.7 649.686 161.133 648.786 162.4C647.919 163.667 646.652 164.667 644.986 165.4C643.352 166.1 641.436 166.45 639.236 166.45ZM664.282 144.05V157.45C664.282 158.383 664.498 159.067 664.932 159.5C665.398 159.9 666.165 160.1 667.232 160.1H670.482V166H666.082C660.182 166 657.232 163.133 657.232 157.4V144.05H653.932V138.3H657.232V131.45H664.282V138.3H670.482V144.05H664.282ZM701.516 151.55C701.516 152.55 701.45 153.45 701.316 154.25H681.066C681.233 156.25 681.933 157.817 683.166 158.95C684.4 160.083 685.916 160.65 687.716 160.65C690.316 160.65 692.166 159.533 693.266 157.3H700.816C700.016 159.967 698.483 162.167 696.216 163.9C693.95 165.6 691.166 166.45 687.866 166.45C685.2 166.45 682.8 165.867 680.666 164.7C678.566 163.5 676.916 161.817 675.716 159.65C674.55 157.483 673.966 154.983 673.966 152.15C673.966 149.283 674.55 146.767 675.716 144.6C676.883 142.433 678.516 140.767 680.616 139.6C682.716 138.433 685.133 137.85 687.866 137.85C690.5 137.85 692.85 138.417 694.916 139.55C697.016 140.683 698.633 142.3 699.766 144.4C700.933 146.467 701.516 148.85 701.516 151.55ZM694.266 149.55C694.233 147.75 693.583 146.317 692.316 145.25C691.05 144.15 689.5 143.6 687.666 143.6C685.933 143.6 684.466 144.133 683.266 145.2C682.1 146.233 681.383 147.683 681.116 149.55H694.266ZM705.076 152.05C705.076 149.25 705.626 146.767 706.726 144.6C707.859 142.433 709.392 140.767 711.326 139.6C713.259 138.433 715.409 137.85 717.776 137.85C719.576 137.85 721.292 138.25 722.926 139.05C724.559 139.817 725.859 140.85 726.826 142.15V129H733.926V166H726.826V161.9C725.959 163.267 724.742 164.367 723.176 165.2C721.609 166.033 719.792 166.45 717.726 166.45C715.392 166.45 713.259 165.85 711.326 164.65C709.392 163.45 707.859 161.767 706.726 159.6C705.626 157.4 705.076 154.883 705.076 152.05ZM726.876 152.15C726.876 150.45 726.542 149 725.876 147.8C725.209 146.567 724.309 145.633 723.176 145C722.042 144.333 720.826 144 719.526 144C718.226 144 717.026 144.317 715.926 144.95C714.826 145.583 713.926 146.517 713.226 147.75C712.559 148.95 712.226 150.383 712.226 152.05C712.226 153.717 712.559 155.183 713.226 156.45C713.926 157.683 714.826 158.633 715.926 159.3C717.059 159.967 718.259 160.3 719.526 160.3C720.826 160.3 722.042 159.983 723.176 159.35C724.309 158.683 725.209 157.75 725.876 156.55C726.542 155.317 726.876 153.85 726.876 152.15ZM799.827 131.1L790.077 166H781.827L775.277 141.15L768.427 166L760.227 166.05L750.827 131.1H758.327L764.477 158.2L771.577 131.1H779.377L786.077 158.05L792.277 131.1H799.827ZM816.947 166.45C814.281 166.45 811.881 165.867 809.747 164.7C807.614 163.5 805.931 161.817 804.697 159.65C803.497 157.483 802.897 154.983 802.897 152.15C802.897 149.317 803.514 146.817 804.747 144.65C806.014 142.483 807.731 140.817 809.897 139.65C812.064 138.45 814.481 137.85 817.147 137.85C819.814 137.85 822.231 138.45 824.397 139.65C826.564 140.817 828.264 142.483 829.497 144.65C830.764 146.817 831.397 149.317 831.397 152.15C831.397 154.983 830.747 157.483 829.447 159.65C828.181 161.817 826.447 163.5 824.247 164.7C822.081 165.867 819.647 166.45 816.947 166.45ZM816.947 160.35C818.214 160.35 819.397 160.05 820.497 159.45C821.631 158.817 822.531 157.883 823.197 156.65C823.864 155.417 824.197 153.917 824.197 152.15C824.197 149.517 823.497 147.5 822.097 146.1C820.731 144.667 819.047 143.95 817.047 143.95C815.047 143.95 813.364 144.667 811.997 146.1C810.664 147.5 809.997 149.517 809.997 152.15C809.997 154.783 810.647 156.817 811.947 158.25C813.281 159.65 814.947 160.35 816.947 160.35ZM843.782 142.6C844.682 141.133 845.849 139.983 847.282 139.15C848.749 138.317 850.415 137.9 852.282 137.9V145.25H850.432C848.232 145.25 846.565 145.767 845.432 146.8C844.332 147.833 843.782 149.633 843.782 152.2V166H836.782V138.3H843.782V142.6ZM873.647 166L864.247 154.2V166H857.247V129H864.247V150.05L873.547 138.3H882.647L870.447 152.2L882.747 166H873.647ZM890.246 135C889.013 135 887.979 134.617 887.146 133.85C886.346 133.05 885.946 132.067 885.946 130.9C885.946 129.733 886.346 128.767 887.146 128C887.979 127.2 889.013 126.8 890.246 126.8C891.479 126.8 892.496 127.2 893.296 128C894.129 128.767 894.546 129.733 894.546 130.9C894.546 132.067 894.129 133.05 893.296 133.85C892.496 134.617 891.479 135 890.246 135ZM893.696 138.3V166H886.696V138.3H893.696ZM916.212 137.9C919.512 137.9 922.179 138.95 924.212 141.05C926.245 143.117 927.262 146.017 927.262 149.75V166H920.262V150.7C920.262 148.5 919.712 146.817 918.612 145.65C917.512 144.45 916.012 143.85 914.112 143.85C912.179 143.85 910.645 144.45 909.512 145.65C908.412 146.817 907.862 148.5 907.862 150.7V166H900.862V138.3H907.862V141.75C908.795 140.55 909.979 139.617 911.412 138.95C912.879 138.25 914.479 137.9 916.212 137.9ZM945.019 137.85C947.085 137.85 948.902 138.267 950.469 139.1C952.035 139.9 953.269 140.95 954.169 142.25V138.3H961.219V166.2C961.219 168.767 960.702 171.05 959.669 173.05C958.635 175.083 957.085 176.683 955.019 177.85C952.952 179.05 950.452 179.65 947.519 179.65C943.585 179.65 940.352 178.733 937.819 176.9C935.319 175.067 933.902 172.567 933.569 169.4H940.519C940.885 170.667 941.669 171.667 942.869 172.4C944.102 173.167 945.585 173.55 947.319 173.55C949.352 173.55 951.002 172.933 952.269 171.7C953.535 170.5 954.169 168.667 954.169 166.2V161.9C953.269 163.2 952.019 164.283 950.419 165.15C948.852 166.017 947.052 166.45 945.019 166.45C942.685 166.45 940.552 165.85 938.619 164.65C936.685 163.45 935.152 161.767 934.019 159.6C932.919 157.4 932.369 154.883 932.369 152.05C932.369 149.25 932.919 146.767 934.019 144.6C935.152 142.433 936.669 140.767 938.569 139.6C940.502 138.433 942.652 137.85 945.019 137.85ZM954.169 152.15C954.169 150.45 953.835 149 953.169 147.8C952.502 146.567 951.602 145.633 950.469 145C949.335 144.333 948.119 144 946.819 144C945.519 144 944.319 144.317 943.219 144.95C942.119 145.583 941.219 146.517 940.519 147.75C939.852 148.95 939.519 150.383 939.519 152.05C939.519 153.717 939.852 155.183 940.519 156.45C941.219 157.683 942.119 158.633 943.219 159.3C944.352 159.967 945.552 160.3 946.819 160.3C948.119 160.3 949.335 159.983 950.469 159.35C951.602 158.683 952.502 157.75 953.169 156.55C953.835 155.317 954.169 153.85 954.169 152.15ZM467.472 203.1L457.722 238H449.472L442.922 213.15L436.072 238L427.872 238.05L418.472 203.1H425.972L432.122 230.2L439.222 203.1H447.022L453.722 230.05L459.922 203.1H467.472ZM475.843 207C474.609 207 473.576 206.617 472.743 205.85C471.943 205.05 471.543 204.067 471.543 202.9C471.543 201.733 471.943 200.767 472.743 200C473.576 199.2 474.609 198.8 475.843 198.8C477.076 198.8 478.093 199.2 478.893 200C479.726 200.767 480.143 201.733 480.143 202.9C480.143 204.067 479.726 205.05 478.893 205.85C478.093 206.617 477.076 207 475.843 207ZM479.293 210.3V238H472.293V210.3H479.293ZM494.609 216.05V229.45C494.609 230.383 494.825 231.067 495.259 231.5C495.725 231.9 496.492 232.1 497.559 232.1H500.809V238H496.409C490.509 238 487.559 235.133 487.559 229.4V216.05H484.259V210.3H487.559V203.45H494.609V210.3H500.809V216.05H494.609ZM521.694 209.9C523.794 209.9 525.66 210.367 527.294 211.3C528.927 212.2 530.194 213.55 531.094 215.35C532.027 217.117 532.494 219.25 532.494 221.75V238H525.494V222.7C525.494 220.5 524.944 218.817 523.844 217.65C522.744 216.45 521.244 215.85 519.344 215.85C517.41 215.85 515.877 216.45 514.744 217.65C513.644 218.817 513.094 220.5 513.094 222.7V238H506.094V201H513.094V213.75C513.994 212.55 515.194 211.617 516.694 210.95C518.194 210.25 519.86 209.9 521.694 209.9ZM585.964 209.9C589.364 209.9 592.098 210.95 594.164 213.05C596.264 215.117 597.314 218.017 597.314 221.75V238H590.314V222.7C590.314 220.533 589.764 218.883 588.664 217.75C587.564 216.583 586.064 216 584.164 216C582.264 216 580.748 216.583 579.614 217.75C578.514 218.883 577.964 220.533 577.964 222.7V238H570.964V222.7C570.964 220.533 570.414 218.883 569.314 217.75C568.214 216.583 566.714 216 564.814 216C562.881 216 561.348 216.583 560.214 217.75C559.114 218.883 558.564 220.533 558.564 222.7V238H551.564V210.3H558.564V213.65C559.464 212.483 560.614 211.567 562.014 210.9C563.448 210.233 565.014 209.9 566.714 209.9C568.881 209.9 570.814 210.367 572.514 211.3C574.214 212.2 575.531 213.5 576.464 215.2C577.364 213.6 578.664 212.317 580.364 211.35C582.098 210.383 583.964 209.9 585.964 209.9ZM629.957 223.55C629.957 224.55 629.89 225.45 629.757 226.25H609.507C609.674 228.25 610.374 229.817 611.607 230.95C612.84 232.083 614.357 232.65 616.157 232.65C618.757 232.65 620.607 231.533 621.707 229.3H629.257C628.457 231.967 626.924 234.167 624.657 235.9C622.39 237.6 619.607 238.45 616.307 238.45C613.64 238.45 611.24 237.867 609.107 236.7C607.007 235.5 605.357 233.817 604.157 231.65C602.99 229.483 602.407 226.983 602.407 224.15C602.407 221.283 602.99 218.767 604.157 216.6C605.324 214.433 606.957 212.767 609.057 211.6C611.157 210.433 613.574 209.85 616.307 209.85C618.94 209.85 621.29 210.417 623.357 211.55C625.457 212.683 627.074 214.3 628.207 216.4C629.374 218.467 629.957 220.85 629.957 223.55ZM622.707 221.55C622.674 219.75 622.024 218.317 620.757 217.25C619.49 216.15 617.94 215.6 616.107 215.6C614.374 215.6 612.907 216.133 611.707 217.2C610.54 218.233 609.824 219.683 609.557 221.55H622.707ZM645.066 201.9C648.533 201.9 651.316 202.85 653.416 204.75C655.55 206.617 656.616 209.2 656.616 212.5C656.616 215.767 655.566 218.267 653.466 220C651.366 221.7 648.583 222.55 645.116 222.55L644.916 226.4H638.766L638.516 217.9H640.766C643.666 217.9 645.9 217.517 647.466 216.75C649.033 215.983 649.816 214.583 649.816 212.55C649.816 211.083 649.383 209.917 648.516 209.05C647.683 208.183 646.533 207.75 645.066 207.75C643.533 207.75 642.333 208.167 641.466 209C640.633 209.833 640.216 210.983 640.216 212.45H633.616C633.583 210.417 634.016 208.6 634.916 207C635.816 205.4 637.133 204.15 638.866 203.25C640.633 202.35 642.7 201.9 645.066 201.9ZM641.816 238.35C640.55 238.35 639.5 237.967 638.666 237.2C637.866 236.4 637.466 235.417 637.466 234.25C637.466 233.083 637.866 232.117 638.666 231.35C639.5 230.55 640.55 230.15 641.816 230.15C643.05 230.15 644.066 230.55 644.866 231.35C645.666 232.117 646.066 233.083 646.066 234.25C646.066 235.417 645.666 236.4 644.866 237.2C644.066 237.967 643.05 238.35 641.816 238.35ZM681.635 232.45H693.135V238H674.635V203.1H681.635V232.45ZM723.584 223.55C723.584 224.55 723.517 225.45 723.384 226.25H703.134C703.3 228.25 704 229.817 705.234 230.95C706.467 232.083 707.984 232.65 709.784 232.65C712.384 232.65 714.234 231.533 715.334 229.3H722.884C722.084 231.967 720.55 234.167 718.284 235.9C716.017 237.6 713.234 238.45 709.934 238.45C707.267 238.45 704.867 237.867 702.734 236.7C700.634 235.5 698.984 233.817 697.784 231.65C696.617 229.483 696.034 226.983 696.034 224.15C696.034 221.283 696.617 218.767 697.784 216.6C698.95 214.433 700.584 212.767 702.684 211.6C704.784 210.433 707.2 209.85 709.934 209.85C712.567 209.85 714.917 210.417 716.984 211.55C719.084 212.683 720.7 214.3 721.834 216.4C723 218.467 723.584 220.85 723.584 223.55ZM716.334 221.55C716.3 219.75 715.65 218.317 714.384 217.25C713.117 216.15 711.567 215.6 709.734 215.6C708 215.6 706.534 216.133 705.334 217.2C704.167 218.233 703.45 219.683 703.184 221.55H716.334ZM737.093 216.05V229.45C737.093 230.383 737.31 231.067 737.743 231.5C738.21 231.9 738.976 232.1 740.043 232.1H743.293V238H738.893C732.993 238 730.043 235.133 730.043 229.4V216.05H726.743V210.3H730.043V203.45H737.093V210.3H743.293V216.05H737.093ZM752.978 198.1L752.378 208.7H747.628L746.978 198.1H752.978ZM769.194 238.45C766.927 238.45 764.894 238.05 763.094 237.25C761.294 236.417 759.86 235.3 758.794 233.9C757.76 232.5 757.194 230.95 757.094 229.25H764.144C764.277 230.317 764.794 231.2 765.694 231.9C766.627 232.6 767.777 232.95 769.144 232.95C770.477 232.95 771.51 232.683 772.244 232.15C773.01 231.617 773.394 230.933 773.394 230.1C773.394 229.2 772.927 228.533 771.994 228.1C771.094 227.633 769.644 227.133 767.644 226.6C765.577 226.1 763.877 225.583 762.544 225.05C761.244 224.517 760.11 223.7 759.144 222.6C758.21 221.5 757.744 220.017 757.744 218.15C757.744 216.617 758.177 215.217 759.044 213.95C759.944 212.683 761.21 211.683 762.844 210.95C764.51 210.217 766.46 209.85 768.694 209.85C771.994 209.85 774.627 210.683 776.594 212.35C778.56 213.983 779.644 216.2 779.844 219H773.144C773.044 217.9 772.577 217.033 771.744 216.4C770.944 215.733 769.86 215.4 768.494 215.4C767.227 215.4 766.244 215.633 765.544 216.1C764.877 216.567 764.544 217.217 764.544 218.05C764.544 218.983 765.01 219.7 765.944 220.2C766.877 220.667 768.327 221.15 770.294 221.65C772.294 222.15 773.944 222.667 775.244 223.2C776.544 223.733 777.66 224.567 778.594 225.7C779.56 226.8 780.06 228.267 780.094 230.1C780.094 231.7 779.644 233.133 778.744 234.4C777.877 235.667 776.61 236.667 774.944 237.4C773.31 238.1 771.394 238.45 769.194 238.45ZM796.454 224.15C796.454 221.283 797.037 218.783 798.204 216.65C799.37 214.483 800.987 212.817 803.054 211.65C805.12 210.45 807.487 209.85 810.154 209.85C813.587 209.85 816.42 210.717 818.654 212.45C820.92 214.15 822.437 216.55 823.204 219.65H815.654C815.254 218.45 814.57 217.517 813.604 216.85C812.67 216.15 811.504 215.8 810.104 215.8C808.104 215.8 806.52 216.533 805.354 218C804.187 219.433 803.604 221.483 803.604 224.15C803.604 226.783 804.187 228.833 805.354 230.3C806.52 231.733 808.104 232.45 810.104 232.45C812.937 232.45 814.787 231.183 815.654 228.65H823.204C822.437 231.65 820.92 234.033 818.654 235.8C816.387 237.567 813.554 238.45 810.154 238.45C807.487 238.45 805.12 237.867 803.054 236.7C800.987 235.5 799.37 233.833 798.204 231.7C797.037 229.533 796.454 227.017 796.454 224.15ZM840.882 238.45C838.215 238.45 835.815 237.867 833.682 236.7C831.549 235.5 829.865 233.817 828.632 231.65C827.432 229.483 826.832 226.983 826.832 224.15C826.832 221.317 827.449 218.817 828.682 216.65C829.949 214.483 831.665 212.817 833.832 211.65C835.999 210.45 838.415 209.85 841.082 209.85C843.749 209.85 846.165 210.45 848.332 211.65C850.499 212.817 852.199 214.483 853.432 216.65C854.699 218.817 855.332 221.317 855.332 224.15C855.332 226.983 854.682 229.483 853.382 231.65C852.115 233.817 850.382 235.5 848.182 236.7C846.015 237.867 843.582 238.45 840.882 238.45ZM840.882 232.35C842.149 232.35 843.332 232.05 844.432 231.45C845.565 230.817 846.465 229.883 847.132 228.65C847.799 227.417 848.132 225.917 848.132 224.15C848.132 221.517 847.432 219.5 846.032 218.1C844.665 216.667 842.982 215.95 840.982 215.95C838.982 215.95 837.299 216.667 835.932 218.1C834.599 219.5 833.932 221.517 833.932 224.15C833.932 226.783 834.582 228.817 835.882 230.25C837.215 231.65 838.882 232.35 840.882 232.35ZM876.067 209.9C879.367 209.9 882.033 210.95 884.067 213.05C886.1 215.117 887.117 218.017 887.117 221.75V238H880.117V222.7C880.117 220.5 879.567 218.817 878.467 217.65C877.367 216.45 875.867 215.85 873.967 215.85C872.033 215.85 870.5 216.45 869.367 217.65C868.267 218.817 867.717 220.5 867.717 222.7V238H860.717V210.3H867.717V213.75C868.65 212.55 869.833 211.617 871.267 210.95C872.733 210.25 874.333 209.9 876.067 209.9ZM909.373 209.9C912.673 209.9 915.34 210.95 917.373 213.05C919.407 215.117 920.423 218.017 920.423 221.75V238H913.423V222.7C913.423 220.5 912.873 218.817 911.773 217.65C910.673 216.45 909.173 215.85 907.273 215.85C905.34 215.85 903.807 216.45 902.673 217.65C901.573 218.817 901.023 220.5 901.023 222.7V238H894.023V210.3H901.023V213.75C901.957 212.55 903.14 211.617 904.573 210.95C906.04 210.25 907.64 209.9 909.373 209.9ZM953.08 223.55C953.08 224.55 953.013 225.45 952.88 226.25H932.63C932.797 228.25 933.497 229.817 934.73 230.95C935.963 232.083 937.48 232.65 939.28 232.65C941.88 232.65 943.73 231.533 944.83 229.3H952.38C951.58 231.967 950.047 234.167 947.78 235.9C945.513 237.6 942.73 238.45 939.43 238.45C936.763 238.45 934.363 237.867 932.23 236.7C930.13 235.5 928.48 233.817 927.28 231.65C926.113 229.483 925.53 226.983 925.53 224.15C925.53 221.283 926.113 218.767 927.28 216.6C928.447 214.433 930.08 212.767 932.18 211.6C934.28 210.433 936.697 209.85 939.43 209.85C942.063 209.85 944.413 210.417 946.48 211.55C948.58 212.683 950.197 214.3 951.33 216.4C952.497 218.467 953.08 220.85 953.08 223.55ZM945.83 221.55C945.797 219.75 945.147 218.317 943.88 217.25C942.613 216.15 941.063 215.6 939.23 215.6C937.497 215.6 936.03 216.133 934.83 217.2C933.663 218.233 932.947 219.683 932.68 221.55H945.83ZM956.639 224.15C956.639 221.283 957.223 218.783 958.389 216.65C959.556 214.483 961.173 212.817 963.239 211.65C965.306 210.45 967.673 209.85 970.339 209.85C973.773 209.85 976.606 210.717 978.839 212.45C981.106 214.15 982.623 216.55 983.389 219.65H975.839C975.439 218.45 974.756 217.517 973.789 216.85C972.856 216.15 971.689 215.8 970.289 215.8C968.289 215.8 966.706 216.533 965.539 218C964.373 219.433 963.789 221.483 963.789 224.15C963.789 226.783 964.373 228.833 965.539 230.3C966.706 231.733 968.289 232.45 970.289 232.45C973.123 232.45 974.973 231.183 975.839 228.65H983.389C982.623 231.65 981.106 234.033 978.839 235.8C976.573 237.567 973.739 238.45 970.339 238.45C967.673 238.45 965.306 237.867 963.239 236.7C961.173 235.5 959.556 233.833 958.389 231.7C957.223 229.533 956.639 227.017 956.639 224.15ZM996.917 216.05V229.45C996.917 230.383 997.134 231.067 997.567 231.5C998.034 231.9 998.801 232.1 999.867 232.1H1003.12V238H998.717C992.817 238 989.867 235.133 989.867 229.4V216.05H986.567V210.3H989.867V203.45H996.917V210.3H1003.12V216.05H996.917ZM1017.45 202.5L1016.65 226.65H1010.75L1009.9 202.5H1017.45ZM1013.85 238.35C1012.59 238.35 1011.54 237.967 1010.7 237.2C1009.9 236.4 1009.5 235.417 1009.5 234.25C1009.5 233.083 1009.9 232.117 1010.7 231.35C1011.54 230.55 1012.59 230.15 1013.85 230.15C1015.09 230.15 1016.1 230.55 1016.9 231.35C1017.7 232.117 1018.1 233.083 1018.1 234.25C1018.1 235.417 1017.7 236.4 1016.9 237.2C1016.1 237.967 1015.09 238.35 1013.85 238.35Z" fill="#292826"/>
<path d="M103.071 115.397C102.036 115.12 100.931 115.416 100.173 116.174C99.4155 116.932 99.1195 118.036 99.3969 119.072L121.139 200.214C121.416 201.249 122.225 202.058 123.26 202.335C124.295 202.612 125.4 202.316 126.158 201.559L185.558 142.158C186.316 141.401 186.612 140.296 186.335 139.261C186.057 138.225 185.248 137.417 184.213 137.139L103.071 115.397Z" fill="#EEC01C" stroke="#292826" stroke-width="6" stroke-linejoin="round"/>
</svg>
