<svg width="1440" height="471" viewBox="0 0 1440 471" fill="none" xmlns="http://www.w3.org/2000/svg">
<rect width="1440" height="471" fill="#fff"/>

<mask id="mask0_56_7562" style="mask-type:alpha" maskUnits="userSpaceOnUse" x="1122" y="206" width="318" height="265">
<path d="M1122 206H1440V471H1122V206Z" fill="#F1F0FB"/>
</mask>
<g mask="url(#mask0_56_7562)">
<ellipse cx="1308.28" cy="382.246" rx="155.283" ry="166.246" fill="#292826" stroke="#EEC01C" stroke-width="6"/>
</g>
<circle cx="251.5" cy="349.5" r="36.5" fill="#292826"/>
<circle cx="1101.5" cy="74.5" r="20.5" fill="#292826"/>
<circle cx="665.5" cy="71.5" r="12.5" fill="#292826"/>
<circle cx="339.5" cy="83.5" r="19.5" fill="#292826"/>
<path d="M103.071 115.397C102.036 115.12 100.931 115.416 100.173 116.174C99.4155 116.932 99.1195 118.036 99.3969 119.072L121.139 200.214C121.416 201.249 122.225 202.058 123.26 202.335C124.295 202.612 125.4 202.316 126.158 201.559L185.558 142.158C186.316 141.401 186.612 140.296 186.335 139.261C186.057 138.225 185.248 137.417 184.213 137.139L103.071 115.397Z" fill="#EEC01C" stroke="#292826" stroke-width="6" stroke-linejoin="round"/>
</svg>
